<svg xmlns="http://www.w3.org/2000/svg" width="25" height="26" fill="none">
  <path
    fill="#B3B9C4"
    d="M22 12c.5.1 1-.3 1.1-.8l1.3-9a1 1 0 1 0-2-.2l-1.1 8-8-1.3a1 1 0 1 0-.2 2L22 12zm-.6 3.9c-3.7 3.8-6.8 6-9.3 7-2.5 1-4.4 1-5.8.2A7.5 7.5 0 0 1 3 18.9c-.8-2-1-4.2-1-6.6.1-2.3.6-4.6 1.5-6.4a6.9 6.9 0 0 1 3.6-3.6c1.5-.5 3.3-.4 5.7 1 2.4 1.3 5.3 4 8.5 8.3l1.6-1.2a32.4 32.4 0 0 0-9-8.9C11 0 8.5-.4 6.3.5A8.9 8.9 0 0 0 1.7 5C.7 7.2.1 9.7 0 12.2c0 2.6.2 5.2 1.1 7.4A9.5 9.5 0 0 0 5.3 25c2 1 4.6 1.1 7.5 0 3-1.3 6.3-3.7 10-7.7L21.4 16z"
  />
</svg>
