<svg
  width="25"
  height="26"
  viewBox="0 0 25 26"
  fill="none"
  xmlns="http://www.w3.org/2000/svg"
>
  <path
    d="M21.9645 12.0323C22.5109 12.1129 23.0192 11.7353 23.0998 11.189L24.4136 2.2854C24.4943 1.73903 24.1167 1.23075 23.5703 1.15013C23.024 1.0695 22.5157 1.44706 22.4351 1.99343L21.2672 9.90773L13.3529 8.73986C12.8065 8.65923 12.2982 9.03679 12.2176 9.58316C12.137 10.1295 12.5146 10.6378 13.0609 10.7184L21.9645 12.0323ZM21.3849 15.8549C17.7024 19.7383 14.6048 21.941 12.0765 22.9681C9.57231 23.9855 7.67785 23.8349 6.26471 23.0947C4.8211 22.3385 3.70192 20.8743 2.96609 18.9311C2.23261 16.9941 1.91497 14.6647 2.01938 12.3378C2.12381 10.0103 2.64786 7.74467 3.5429 5.93083C4.44095 4.11086 5.66535 2.83266 7.13019 2.29407C8.56581 1.76622 10.437 1.87439 12.8148 3.24526C15.2109 4.62672 18.0534 7.25832 21.3077 11.6393L22.9133 10.4467C19.575 5.95268 16.5397 3.08427 13.8137 1.51261C11.0693 -0.0696451 8.57409 -0.367723 6.44001 0.416933C4.33514 1.19085 2.78655 2.94389 1.74937 5.04581C0.709162 7.15384 0.135698 9.70067 0.021386 12.2482C-0.092955 14.7963 0.249402 17.4044 1.0957 19.6393C1.93964 21.868 3.32001 23.81 5.33672 24.8663C7.38391 25.9387 9.91056 26.0068 12.8293 24.821C15.7239 23.6451 19.051 21.2227 22.8361 17.2311L21.3849 15.8549Z"
    fill="#B3B9C4"
  />
</svg>
